<svg width="20" height="17" viewBox="0 0 20 17" fill="none" xmlns="http://www.w3.org/2000/svg">
<g clip-path="url(#clip0_212_1155)">
<path d="M19.0251 7.26085C19.027 7.24693 19.027 7.23285 19.0251 7.21893C19.0269 7.20759 19.0269 7.19602 19.0251 7.18465L18.889 6.20554C18.8694 6.0884 18.8169 5.97891 18.7375 5.88933L18.7141 5.86266L18.6714 5.82075L16.3165 3.83205L16.3825 3.89682C16.3285 3.83342 16.2606 3.78271 16.184 3.74843C16.1073 3.71414 16.0238 3.69715 15.9395 3.69871H15.2245C15.1082 3.69645 14.9946 3.73269 14.9019 3.80157C14.8046 3.73311 14.6875 3.69705 14.5677 3.69871H13.8527C13.7589 3.69722 13.6664 3.72003 13.5845 3.76486C13.5026 3.80968 13.4343 3.87492 13.3864 3.95396C13.3125 4.06686 13.2848 4.20288 13.3086 4.33494L13.398 4.95212C13.3388 4.91921 13.2718 4.90214 13.2037 4.9026H9.74122C9.61699 4.90336 9.49562 4.93906 9.39146 5.00546C9.29075 5.06726 9.2099 5.15576 9.15831 5.26071L8.89016 5.03594C8.78463 4.94021 8.64533 4.88832 8.50156 4.89117H3.06884C2.94417 4.89339 2.82227 4.92754 2.71522 4.99022C2.56876 5.07426 2.46143 5.21091 2.41598 5.3712L0.690567 11.0287C0.658328 11.1219 0.655156 11.2225 0.681459 11.3175C0.707761 11.4125 0.762345 11.4976 0.838239 11.5621C0.858014 11.5785 0.878779 11.5938 0.900417 11.6078C0.900417 11.6078 0.865437 11.5849 0.846007 11.5659L3.20097 13.5584C3.30059 13.6483 3.43084 13.6986 3.56624 13.6994H9.04173C9.16678 13.6962 9.28876 13.6607 9.39537 13.5965C9.45566 13.5642 9.5096 13.5216 9.55469 13.4708L9.57412 13.4441L9.60521 13.406L9.62852 13.3641L9.88501 13.5813C9.9832 13.6676 10.1106 13.7151 10.2425 13.7146H15.7296C15.8546 13.7105 15.9763 13.6751 16.0833 13.6117C16.1422 13.5775 16.1958 13.5351 16.2426 13.486L16.262 13.4593L16.2931 13.4213C16.3096 13.3971 16.324 13.3717 16.3359 13.345C16.3486 13.322 16.359 13.2977 16.367 13.2727L17.9408 8.10662V8.0609C17.9428 8.04317 17.9428 8.02529 17.9408 8.00756V7.97329C17.9427 7.96192 17.9427 7.95035 17.9408 7.93898C17.9426 7.91489 17.9426 7.8907 17.9408 7.86659H18.446C18.49 7.87055 18.5342 7.87055 18.5781 7.86659H18.6131C18.6416 7.85828 18.6689 7.84676 18.6947 7.83231H18.7336L18.8035 7.77898L18.8346 7.75611L18.889 7.68753V7.66469L18.9279 7.59991C18.9257 7.58732 18.9257 7.57442 18.9279 7.56183C18.9258 7.55564 18.9258 7.54896 18.9279 7.54277C18.9361 7.52044 18.9426 7.4975 18.9473 7.47419C18.9455 7.46668 18.9455 7.45884 18.9473 7.45133C18.9454 7.43998 18.9454 7.42839 18.9473 7.41705C18.9473 7.41705 19.0251 7.26846 19.0251 7.26085Z" fill="black"/>
<path d="M8.66097 5.32548C8.68161 5.34377 8.69602 5.36782 8.70226 5.39438C8.70854 5.42095 8.70632 5.44876 8.69596 5.47406L6.97444 11.1278C6.95276 11.1895 6.90841 11.2411 6.85008 11.2725C6.80262 11.3037 6.74769 11.322 6.69074 11.3259H1.21917C1.17244 11.3237 1.12817 11.3047 1.09481 11.2725C1.07497 11.2545 1.06104 11.2312 1.05481 11.2054C1.04858 11.1796 1.05033 11.1526 1.05984 11.1278L2.78525 5.47406C2.80513 5.41155 2.84809 5.35857 2.90572 5.32548C2.95396 5.29659 3.00864 5.27959 3.06505 5.27595H8.53662C8.58298 5.27639 8.62744 5.2941 8.66097 5.32548ZM5.80471 9.98864L6.83453 6.61318H3.95108L2.92514 9.98864H5.80471ZM13.8839 5.38262C13.9025 5.40389 13.9259 5.42076 13.9521 5.43197C13.9783 5.44318 14.0068 5.44845 14.0354 5.44739H14.7466C14.7736 5.44765 14.8003 5.44114 14.8241 5.42847C14.8479 5.41581 14.868 5.3974 14.8826 5.375C14.8952 5.3575 14.9041 5.3377 14.9088 5.31675C14.9135 5.29581 14.9138 5.27416 14.9098 5.25309L14.7699 4.24731C14.7566 4.20076 14.7326 4.15778 14.6999 4.12159C14.6812 4.10032 14.6579 4.08345 14.6317 4.07224C14.6055 4.06103 14.577 4.05576 14.5484 4.05682H13.8372C13.8101 4.05656 13.7834 4.06307 13.7596 4.07574C13.7359 4.08841 13.7157 4.10681 13.7012 4.12921C13.674 4.18255 13.6624 4.21683 13.674 4.24731L13.8178 5.25309C13.8252 5.30207 13.8483 5.34745 13.8839 5.38262ZM16.1417 4.23969C16.1283 4.19314 16.1044 4.15016 16.0717 4.11397C16.0538 4.09278 16.0312 4.07592 16.0056 4.06468C15.98 4.05345 15.9521 4.04815 15.924 4.0492H15.209C15.1824 4.04846 15.156 4.05479 15.1328 4.06754C15.1095 4.08028 15.0902 4.09896 15.0769 4.12159C15.051 4.15539 15.0398 4.19784 15.0458 4.23969L15.1896 5.24547C15.1986 5.29393 15.2215 5.33886 15.2556 5.375C15.2746 5.39586 15.298 5.41244 15.3242 5.42362C15.3504 5.4348 15.3786 5.4403 15.4072 5.43977H16.1222C16.1488 5.44011 16.175 5.43361 16.1982 5.4209C16.2214 5.4082 16.2407 5.38975 16.2544 5.36739C16.2679 5.35034 16.2773 5.33054 16.282 5.30945C16.2868 5.28835 16.2866 5.26649 16.2816 5.24547L16.1417 4.23969ZM13.2582 5.7636L13.1882 5.26833H9.74131C9.68719 5.27125 9.63483 5.28836 9.58974 5.31786C9.56113 5.33316 9.53621 5.35437 9.51675 5.38002C9.49732 5.40567 9.48377 5.43515 9.47707 5.46644L9.18949 6.41126C9.17801 6.43487 9.17408 6.46136 9.17824 6.4872C9.18242 6.51304 9.19446 6.53703 9.2128 6.55604C9.24557 6.58623 9.28834 6.60384 9.33328 6.60557H13.5225L12.4926 9.98103H8.31512C8.26125 9.98223 8.20879 9.99806 8.16358 10.0267C8.10861 10.061 8.06847 10.1139 8.05087 10.1753L7.75942 11.1202C7.74991 11.1444 7.74741 11.1707 7.7522 11.1963C7.75702 11.2218 7.76891 11.2456 7.78661 11.2649C7.81836 11.2971 7.86146 11.3162 7.90708 11.3182H13.3942C13.451 11.3135 13.5057 11.2952 13.5535 11.2649C13.6109 11.2333 13.654 11.1816 13.674 11.1202L15.2517 5.95409H13.4758C13.4476 5.95463 13.4197 5.94951 13.3936 5.93902C13.3675 5.92854 13.3439 5.91291 13.3243 5.89313C13.2921 5.85858 13.2694 5.81666 13.2582 5.77122V5.7636Z" fill="white"/>
</g>
<defs>
<clipPath id="clip0_212_1155">
<rect width="18.3627" height="10.016" fill="white" transform="translate(0.663818 3.69861)"/>
</clipPath>
</defs>
</svg>
