<svg width="14" height="10" viewBox="0 0 14 10" fill="none" xmlns="http://www.w3.org/2000/svg">
<g clip-path="url(#clip0_212_1148)">
<path d="M12.9709 0.648032C12.9709 0.803612 13.0986 0.929732 13.2561 0.929732H13.5413C13.6988 0.929732 13.8265 0.803612 13.8265 0.648032C13.8265 0.492454 13.6988 0.366333 13.5413 0.366333H13.2561C13.0986 0.366333 12.9709 0.492454 12.9709 0.648032Z" fill="#212326"/>
<path d="M4.7009 9.38073H6.08625L5.68294 8.98234C5.57599 8.87669 5.43091 8.81733 5.27966 8.81733H4.7009C2.49591 8.81733 0.708417 7.05163 0.708417 4.87353C0.708417 2.69543 2.49591 0.929735 4.7009 0.929733H9.26375C11.4687 0.929733 13.2562 2.69543 13.2562 4.87353C13.2562 7.05163 11.4687 8.81733 9.26375 8.81733H7.55688C7.32997 8.81733 7.11237 8.72829 6.95191 8.56982L6.47943 8.10307C6.21203 7.83893 5.84933 7.69053 5.47116 7.69053H4.7009C3.1259 7.69053 1.84913 6.42933 1.84913 4.87353C1.84913 3.31774 3.1259 2.05653 4.7009 2.05653H9.26375C10.8387 2.05653 12.1155 3.31774 12.1155 4.87353C12.1155 6.42933 10.8387 7.69053 9.26375 7.69053H8.16778C7.94087 7.69053 7.72326 7.60149 7.56281 7.44302L7.09031 6.97627C6.8229 6.71213 6.46022 6.56373 6.08205 6.56373H4.7009C3.75592 6.56373 2.98984 5.80699 2.98984 4.87353C2.98984 3.94007 3.75592 3.18333 4.7009 3.18333H9.26375C10.2087 3.18333 10.9748 3.94007 10.9748 4.87353C10.9748 5.79561 10.2273 6.54525 9.29824 6.56339L9.29806 6.56373H8.88072C8.65381 6.56373 8.43621 6.47469 8.27575 6.31622L7.80325 5.84948C7.58385 5.63272 7.30029 5.49392 6.99665 5.45108L6.98233 5.43693H4.7009C4.38591 5.43693 4.13055 5.18469 4.13055 4.87353C4.13055 4.56238 4.38591 4.31013 4.7009 4.31013H9.26375C9.57874 4.31013 9.8341 4.56238 9.8341 4.87353C9.8341 5.18469 9.57874 5.43693 9.26375 5.43693H8.12304L8.52635 5.83532C8.6333 5.94097 8.77838 6.00033 8.92963 6.00033H9.26375C9.89374 6.00033 10.4045 5.49584 10.4045 4.87353C10.4045 4.25122 9.89374 3.74673 9.26375 3.74673H4.7009C4.07091 3.74673 3.56019 4.25122 3.56019 4.87353C3.56019 5.49584 4.07091 6.00033 4.7009 6.00033H6.795C7.02191 6.00033 7.23951 6.08937 7.39996 6.24784L7.87247 6.71459C8.13987 6.97873 8.50255 7.12713 8.88072 7.12713H9.40634V7.1228C10.5999 7.0501 11.5452 6.07085 11.5452 4.87353C11.5452 3.62891 10.5237 2.61993 9.26375 2.61993H4.7009C3.44092 2.61993 2.41948 3.62891 2.41948 4.87353C2.41948 6.11817 3.44092 7.12713 4.7009 7.12713H6.08205C6.30896 7.12713 6.52657 7.21617 6.68702 7.37464L7.15952 7.84139C7.42693 8.10553 7.78961 8.25393 8.16778 8.25393H9.26375C11.1537 8.25393 12.6859 6.74048 12.6859 4.87353C12.6859 3.00658 11.1537 1.49313 9.26375 1.49313H4.7009C2.81091 1.49313 1.27877 3.00658 1.27877 4.87353C1.27877 6.74048 2.81091 8.25393 4.7009 8.25393H5.47116C5.69807 8.25393 5.91567 8.34297 6.07612 8.50144L6.54863 8.96819C6.81603 9.23233 7.17871 9.38073 7.55688 9.38073H9.26375C11.7837 9.38073 13.8266 7.36279 13.8266 4.87353C13.8266 2.38427 11.7837 0.366333 9.26375 0.366333L4.7009 0.366334C2.18091 0.366334 0.138061 2.38428 0.138062 4.87353C0.138062 7.36279 2.18092 9.38073 4.7009 9.38073Z" fill="#212326"/>
</g>
<defs>
<clipPath id="clip0_212_1148">
<rect width="13.6885" height="9.0144" fill="white" transform="translate(0.138062 0.366333)"/>
</clipPath>
</defs>
</svg>
