<svg width="14" height="14" viewBox="0 0 14 14" fill="none" xmlns="http://www.w3.org/2000/svg">
<g clip-path="url(#clip0_212_1122)">
<path fill-rule="evenodd" clip-rule="evenodd" d="M3.7509 0.0803223C5.59477 0.0803223 7.08956 1.57509 7.08956 3.41899V0.0803223H10.4282C12.2721 0.0803223 13.7669 1.57509 13.7669 3.41899C13.7669 5.26287 12.2721 6.75765 10.4282 6.75765C12.2721 6.75765 13.7669 8.25244 13.7669 10.0963C13.7669 11.0119 13.3983 11.8414 12.8015 12.4445L12.789 12.4571L12.7779 12.4681C12.1746 13.0658 11.3446 13.435 10.4282 13.435C9.51814 13.435 8.69309 13.0708 8.09083 12.4803C8.08302 12.4726 8.0752 12.4649 8.06742 12.4571C8.06011 12.4498 8.05283 12.4425 8.04559 12.4351C7.45428 11.8327 7.08956 11.0071 7.08956 10.0963C7.08956 11.9402 5.59477 13.435 3.7509 13.435C1.907 13.435 0.412231 11.9402 0.412231 10.0963V6.75765H3.7509C1.907 6.75765 0.412231 5.26287 0.412231 3.41899C0.412231 1.57509 1.907 0.0803223 3.7509 0.0803223ZM6.42183 3.41899C6.42183 4.89411 5.22602 6.08992 3.7509 6.08992V0.748055C5.22602 0.748055 6.42183 1.94387 6.42183 3.41899ZM13.0992 10.0963C13.0992 8.6212 11.9033 7.42539 10.4282 7.42539C8.9531 7.42539 7.7573 8.6212 7.7573 10.0963H13.0992ZM1.07996 7.42539V10.0963C1.07996 11.5714 2.27578 12.7673 3.7509 12.7673C5.22602 12.7673 6.42183 11.5714 6.42183 10.0963V7.42539H1.07996ZM7.7573 6.08992V0.748055H10.4282C11.9033 0.748055 13.0992 1.94387 13.0992 3.41899C13.0992 4.89411 11.9033 6.08992 10.4282 6.08992H7.7573Z" fill="#263238"/>
</g>
<defs>
<clipPath id="clip0_212_1122">
<rect width="13.3547" height="13.3547" fill="white" transform="translate(0.412231 0.0803223)"/>
</clipPath>
</defs>
</svg>
