<svg width="38" height="7" viewBox="0 0 38 7" fill="none" xmlns="http://www.w3.org/2000/svg">
<path d="M6.11962 0.0668945V6.86563H4.87806L1.92021 2.58654H1.87041V6.86563H0.432983V0.0668945H1.69447L4.62908 4.34266H4.68883V0.0668945H6.11962Z" fill="#263238"/>
<path d="M9.60447 6.96522C9.07996 6.96522 8.62848 6.85899 8.25004 6.64653C7.8738 6.43186 7.58388 6.12866 7.38028 5.73694C7.17667 5.343 7.07486 4.87713 7.07486 4.33934C7.07486 3.81483 7.17667 3.3545 7.38028 2.95835C7.58388 2.5622 7.87049 2.25347 8.24008 2.03215C8.61188 1.81084 9.04787 1.70018 9.54804 1.70018C9.88443 1.70018 10.1976 1.75441 10.4875 1.86285C10.7796 1.96908 11.0342 2.12953 11.251 2.34421C11.4701 2.55888 11.6406 2.82888 11.7623 3.15421C11.884 3.47733 11.9449 3.85577 11.9449 4.28955V4.67795H7.63921V3.80155H10.6137C10.6137 3.59794 10.5694 3.41757 10.4809 3.26044C10.3923 3.10331 10.2695 2.98048 10.1124 2.89196C9.95747 2.80122 9.7771 2.75585 9.57128 2.75585C9.3566 2.75585 9.16627 2.80564 9.00029 2.90523C8.83652 3.00261 8.70815 3.13429 8.6152 3.30028C8.52225 3.46405 8.47467 3.64663 8.47246 3.84803V4.68127C8.47246 4.93357 8.51893 5.15156 8.61188 5.33525C8.70705 5.51894 8.84094 5.66058 9.01357 5.76017C9.18619 5.85976 9.39091 5.90956 9.62771 5.90956C9.78484 5.90956 9.9287 5.88743 10.0593 5.84316C10.1898 5.7989 10.3016 5.73251 10.3946 5.64398C10.4875 5.55546 10.5583 5.44702 10.607 5.31865L11.915 5.40497C11.8486 5.71923 11.7125 5.99366 11.5067 6.22825C11.3031 6.46063 11.0397 6.64211 10.7166 6.77268C10.3957 6.90104 10.025 6.96522 9.60447 6.96522Z" fill="#263238"/>
<path d="M13.9583 1.76658L14.8944 3.54926L15.8538 1.76658H17.3045L15.8272 4.31611L17.3443 6.86563H15.9003L14.8944 5.10287L13.9051 6.86563H12.4445L13.9583 4.31611L12.4976 1.76658H13.9583Z" fill="#263238"/>
<path d="M20.2657 6.96522C19.7434 6.96522 19.2941 6.85457 18.9179 6.63325C18.5439 6.40973 18.2562 6.09989 18.0548 5.70374C17.8556 5.30759 17.756 4.85168 17.756 4.33602C17.756 3.81372 17.8567 3.35561 18.0581 2.96167C18.2617 2.56552 18.5505 2.25679 18.9245 2.03547C19.2985 1.81195 19.7434 1.70018 20.259 1.70018C20.7039 1.70018 21.0934 1.78096 21.4276 1.94252C21.7618 2.10408 22.0262 2.33093 22.221 2.62306C22.4157 2.91519 22.5231 3.25823 22.543 3.65217H21.2085C21.1708 3.39766 21.0713 3.19294 20.9097 3.03802C20.7504 2.88089 20.5412 2.80232 20.2823 2.80232C20.0632 2.80232 19.8717 2.86208 19.708 2.98159C19.5464 3.09888 19.4203 3.2704 19.3295 3.49614C19.2388 3.72188 19.1934 3.9952 19.1934 4.31611C19.1934 4.64144 19.2377 4.91808 19.3262 5.14603C19.4169 5.37398 19.5442 5.54771 19.708 5.66722C19.8717 5.78673 20.0632 5.84649 20.2823 5.84649C20.4438 5.84649 20.5888 5.81329 20.7172 5.74689C20.8477 5.6805 20.9551 5.58423 21.0392 5.45808C21.1255 5.32972 21.1819 5.17591 21.2085 4.99664H22.543C22.5209 5.38615 22.4146 5.72919 22.2243 6.02575C22.0362 6.32009 21.7761 6.55026 21.4442 6.71625C21.1122 6.88223 20.7194 6.96522 20.2657 6.96522Z" fill="#263238"/>
<path d="M25.7722 6.96522C25.2477 6.96522 24.7962 6.85899 24.4178 6.64653C24.0416 6.43186 23.7516 6.12866 23.548 5.73694C23.3444 5.343 23.2426 4.87713 23.2426 4.33934C23.2426 3.81483 23.3444 3.3545 23.548 2.95835C23.7516 2.5622 24.0382 2.25347 24.4078 2.03215C24.7796 1.81084 25.2156 1.70018 25.7158 1.70018C26.0522 1.70018 26.3653 1.75441 26.6553 1.86285C26.9474 1.96908 27.2019 2.12953 27.4188 2.34421C27.6379 2.55888 27.8083 2.82888 27.93 3.15421C28.0517 3.47733 28.1126 3.85577 28.1126 4.28955V4.67795H23.807V3.80155H26.7814C26.7814 3.59794 26.7371 3.41757 26.6486 3.26044C26.5601 3.10331 26.4373 2.98048 26.2801 2.89196C26.1252 2.80122 25.9448 2.75585 25.739 2.75585C25.5243 2.75585 25.334 2.80564 25.168 2.90523C25.0043 3.00261 24.8759 3.13429 24.783 3.30028C24.69 3.46405 24.6424 3.64663 24.6402 3.84803V4.68127C24.6402 4.93357 24.6867 5.15156 24.7796 5.33525C24.8748 5.51894 25.0087 5.66058 25.1813 5.76017C25.3539 5.85976 25.5587 5.90956 25.7955 5.90956C25.9526 5.90956 26.0964 5.88743 26.227 5.84316C26.3576 5.7989 26.4694 5.73251 26.5623 5.64398C26.6553 5.55546 26.7261 5.44702 26.7748 5.31865L28.0827 5.40497C28.0163 5.71923 27.8802 5.99366 27.6744 6.22825C27.4708 6.46063 27.2074 6.64211 26.8843 6.77268C26.5634 6.90104 26.1927 6.96522 25.7722 6.96522Z" fill="#263238"/>
<path d="M30.4497 3.91774V6.86563H29.0355V1.76658H30.3833V2.66622H30.443C30.5559 2.36966 30.7451 2.13506 31.0107 1.96244C31.2763 1.7876 31.5983 1.70018 31.9767 1.70018C32.3308 1.70018 32.6396 1.77764 32.9029 1.93256C33.1663 2.08748 33.371 2.3088 33.5171 2.5965C33.6631 2.882 33.7362 3.22282 33.7362 3.61897V6.86563H32.322V3.87127C32.3242 3.55921 32.2445 3.31577 32.083 3.14093C31.9214 2.96388 31.699 2.87536 31.4157 2.87536C31.2254 2.87536 31.0572 2.9163 30.9111 2.99819C30.7673 3.08007 30.6544 3.19958 30.5725 3.35671C30.4928 3.51163 30.4519 3.69864 30.4497 3.91774Z" fill="#263238"/>
<path d="M37.5629 1.76658V2.82888H34.4922V1.76658H37.5629ZM35.1894 0.544931H36.6036V5.29874C36.6036 5.42931 36.6235 5.53111 36.6633 5.60415C36.7031 5.67497 36.7585 5.72476 36.8293 5.75353C36.9023 5.7823 36.9864 5.79669 37.0816 5.79669C37.148 5.79669 37.2144 5.79116 37.2808 5.78009C37.3472 5.76681 37.3981 5.75685 37.4335 5.75021L37.6559 6.80256C37.5851 6.82469 37.4855 6.85014 37.3571 6.87891C37.2288 6.90989 37.0727 6.92871 36.8891 6.93535C36.5482 6.94862 36.2495 6.90325 35.9927 6.79924C35.7382 6.69522 35.5401 6.53366 35.3985 6.31456C35.2569 6.09546 35.1872 5.81882 35.1894 5.48464V0.544931Z" fill="#263238"/>
</svg>
